<mxfile host="app.diagrams.net" modified="2024-01-03T14:37:21.449Z" agent="Mozilla/5.0 (Macintosh; Intel Mac OS X 10_15_7) AppleWebKit/537.36 (KHTML, like Gecko) Chrome/120.0.0.0 Safari/537.36" version="22.1.16" etag="xrdRGoosnymHy4ef4L8t" type="github">
  <diagram name="Trang-1" id="wj0Dd5La487CeXV4qmfb">
    <mxGraphModel>
      <root>
        <mxCell id="0" />
        <mxCell id="1" parent="0" />
      </root>
    </mxGraphModel>
  </diagram>
</mxfile>
